<?xml version="1.0" encoding="UTF-8"?>
<svg width="152px" height="187px" viewBox="0 0 152 187" version="1.1" xmlns="http://www.w3.org/2000/svg" xmlns:xlink="http://www.w3.org/1999/xlink">
    <!-- Generator: Sketch 48.2 (47327) - http://www.bohemiancoding.com/sketch -->
    <title>avataaar</title>
    <desc>Created with Sketch.</desc>
    <defs>
        <path d="M57.5757576,103.060244 C45.1605961,97.1624441 36.0644246,85.4121705 33.8524518,71.3746319 C29.3002761,70.8785674 25.7575758,67.0218359 25.7575758,62.3376623 L25.7575758,53.3766234 C25.7575758,48.8720835 29.0337677,45.1327393 33.3333333,44.4114089 L33.3333333,42.4242424 C33.3333333,18.9939803 52.3273136,4.30406933e-15 75.7575758,0 C99.1878379,-4.30406933e-15 118.181818,18.9939803 118.181818,42.4242424 L118.181818,44.4114089 C122.481384,45.1327393 125.757576,48.8720835 125.757576,53.3766234 L125.757576,62.3376623 C125.757576,67.0218359 122.214875,70.8785674 117.6627,71.3746319 C115.450727,85.4121705 106.354555,97.1624441 93.9393939,103.060244 L93.9393939,116.429241 C125.76356,116.58078 151.515152,142.425944 151.515152,174.285714 L0,174.285714 C-3.90169656e-15,142.425944 25.7515919,116.58078 57.5757576,116.429241 L57.5757576,103.060244 Z" id="path-1"></path>
        <path d="M101.508113,0.600908991 C129.767414,4.55461015 151.515152,28.8239406 151.515152,58.1727273 L0,58.1727273 C-3.62642942e-15,28.5606838 22.1396387,4.11963003 50.7690516,0.499430392 C50.7614191,0.654999281 50.7575758,0.811146745 50.7575758,0.967839853 C50.7575758,9.48769728 62.1200461,16.3944064 76.1363636,16.3944064 C90.1526812,16.3944064 101.515152,9.48769728 101.515152,0.967839853 C101.515152,0.845189996 101.512797,0.722874445 101.508113,0.600908991 Z" id="path-3"></path>
        <path d="M26.6635482,10.658418 C27.4667443,17.34577 33.5789903,22.5454545 41,22.5454545 C48.4439338,22.5454545 54.5710057,17.3135958 55.3437431,10.5964021 C55.4059335,10.0557983 54.7553048,9.15909091 53.9398787,9.15909091 C42.6314611,9.15909091 33.967681,9.15909091 28.1585148,9.15909091 C27.3383572,9.15909091 26.5831896,9.98935795 26.6635482,10.658418 Z" id="path-5"></path>
        <rect id="path-7" x="0" y="0" width="200" height="200"></rect>
        <path d="M141.120295,52.8062507 C142.454704,53.5124046 143.511284,60.5913754 143.562414,63.2983256 C143.594396,64.9687225 143.623031,71.3385787 141.744804,70.7879495 C141.17295,70.6203022 140.30015,67.2480346 140.176009,65.2743546 C140.051868,63.3006747 138.859864,56.5857167 137.030996,53.4962329 C136.613125,52.7902404 135.416533,51.5506377 135.933506,50.9534333 C136.57483,50.2128998 137.197639,50.6425642 137.980568,50.9390681 C138.827461,51.2601058 140.970484,52.7271615 141.120295,52.8062507 Z M141.731662,50.6832768 C141.16509,51.3705726 137.296081,49.4412093 135.682621,48.6028373 C122.130704,41.5600399 119.500133,39.3204879 98.1489957,39.6127466 C76.797858,39.9050053 62.1700396,49.3143018 61.3472343,50.2767433 C60.774782,50.9463451 60.0439512,52.73423 59.442987,57.7146716 C58.8420229,62.6951132 59.6091415,71.6269924 57.4336772,71.6161558 C55.5815222,71.6069297 55.1785715,54.6264538 55.9780964,47.8902803 C56.1008492,46.8560609 56.5739467,45.005997 56.2315011,44.0756287 C55.9322042,43.2630347 54.4681433,43.2646901 54.7018443,41.9107608 C54.9674703,40.3695281 56.6195895,41.1350598 57.3391493,40.3981439 C58.7019481,39.0021186 56.5996364,38.6717362 56.2509554,37.4504801 C55.7326729,35.6351506 57.2304047,35.166892 58.5797351,34.5936301 C60.0729775,33.9598256 59.8789333,34.516533 61.0908366,33.2749384 C59.4721389,32.1589223 58.8865145,30.638501 61.1030579,29.8228325 C62.0443468,29.4763685 64.4933441,29.9349308 65.2308617,29.414407 C65.42316,29.2786593 65.4992313,28.5005934 65.617703,28.3414328 C66.7954365,26.7566851 66.504869,25.6094517 66.3853997,23.8303058 C66.2871305,22.3744475 66.3003495,21.0380188 68.1534964,20.8925748 C69.3900917,20.7956122 70.3957294,21.7458459 71.503627,22.0256186 C72.7327398,22.3361355 72.2710742,22.5626969 73.2340622,21.9392982 C74.9245911,20.8440935 73.7740438,18.7102063 75.1146447,17.437158 C76.9543233,15.6901753 78.1602406,18.2509346 79.6372711,18.4441503 C82.8437391,18.8644005 81.8146564,15.8013276 83.7129473,14.6789261 C85.9818676,13.3384769 86.2013521,16.2866137 87.6185231,16.3916171 C88.8466383,16.4821944 91.0576945,14.2532365 92.12818,13.8379527 C95.3044689,12.6051084 96.878272,16.0742419 99.9019195,15.6317612 C102.096016,15.3106021 102.688374,15.04833 104.668473,16.2225238 C106.590458,17.3621893 107.047135,16.5474668 109.223523,16.5311487 C110.761161,16.52027 111.702949,17.7287554 112.989178,17.8548068 C113.630671,17.9179507 114.244728,17.2893491 114.933111,17.3288437 C117.391586,17.4690847 117.546971,20.4593174 119.500133,21.2825538 C121.284691,22.0348418 123.382763,20.9779492 125.153853,20.7823685 C129.475202,20.3053597 126.515903,24.1018012 126.637867,26.3676522 C128.334132,26.739894 130.055838,25.25069 131.744372,25.5247868 C134.403376,25.9566252 133.399733,28.5486017 132.783431,30.2960574 C134.625853,30.2648402 139.435306,28.3411963 140.629002,30.8014455 C141.244556,32.0700004 139.810425,33.7635354 139.83387,35.0531383 C139.866792,36.8684679 141.284961,38.3704425 141.786782,40.0885729 C142.463941,42.4078716 143.428987,48.6242884 141.731662,50.6832768 Z" id="path-9"></path>
        <path d="M61.1984428,11.8401962 C64.1764528,6.10905878 70.3921198,2.16666667 77.5774648,2.16666667 C84.3547129,2.16666667 90.2693023,5.67395396 93.418156,10.8813887 C93.5515767,10.849961 93.6907089,10.8333333 93.8337246,10.8333333 L100.109937,10.8333333 C101.107118,10.8333333 101.915493,11.6417081 101.915493,12.6388889 C101.915493,13.6360697 101.107118,14.4444444 100.109937,14.4444444 L95.0423777,14.4444444 C95.5551714,16.0438721 95.8309859,17.7413498 95.8309859,19.5 C95.8309859,29.0729357 87.6586061,36.8333333 77.5774648,36.8333333 C67.4963234,36.8333333 59.3239437,29.0729357 59.3239437,19.5 C59.3239437,18.473077 59.4179883,17.467012 59.5983453,16.4891475 C59.5340461,13.3288303 56.9765375,10.8333333 53.8953595,10.8333333 C51.0533263,10.8333333 48.6568282,12.9564886 48.2514821,15.7661566 C48.5295185,16.9687499 48.6760563,18.2181248 48.6760563,19.5 C48.6760563,29.0729357 40.5036766,36.8333333 30.4225352,36.8333333 C20.3413939,36.8333333 12.1690141,29.0729357 12.1690141,19.5 C12.1690141,17.7413498 12.4448286,16.0438721 12.9576223,14.4444444 L7.8900626,14.4444444 C6.8928818,14.4444444 6.08450704,13.6360697 6.08450704,12.6388889 C6.08450704,11.6417081 6.8928818,10.8333333 7.8900626,10.8333333 L14.1662754,10.8333333 C14.3092911,10.8333333 14.4484233,10.849961 14.581844,10.8813887 C17.7306977,5.67395396 23.6452871,2.16666667 30.4225352,2.16666667 C37.5354432,2.16666667 43.6981257,6.02997124 46.7105065,11.6674133 C48.2903908,9.41725233 50.9192948,7.94444444 53.8953595,7.94444444 C56.9469414,7.94444444 59.633521,9.4929453 61.1984428,11.8401962 Z M30.4225352,33.9444444 C38.8234863,33.9444444 45.6338028,27.4774464 45.6338028,19.5 C45.6338028,11.5225536 38.8234863,5.05555556 30.4225352,5.05555556 C22.0215841,5.05555556 15.2112676,11.5225536 15.2112676,19.5 C15.2112676,27.4774464 22.0215841,33.9444444 30.4225352,33.9444444 Z M77.5774648,33.9444444 C85.9784159,33.9444444 92.7887324,27.4774464 92.7887324,19.5 C92.7887324,11.5225536 85.9784159,5.05555556 77.5774648,5.05555556 C69.1765137,5.05555556 62.3661972,11.5225536 62.3661972,19.5 C62.3661972,27.4774464 69.1765137,33.9444444 77.5774648,33.9444444 Z" id="path-11"></path>
        <filter x="-1.0%" y="-2.9%" width="102.1%" height="111.5%" filterUnits="objectBoundingBox" id="filter-12">
            <feOffset dx="0" dy="2" in="SourceAlpha" result="shadowOffsetOuter1"></feOffset>
            <feColorMatrix values="0 0 0 0 0   0 0 0 0 0   0 0 0 0 0  0 0 0 0.1 0" type="matrix" in="shadowOffsetOuter1"></feColorMatrix>
        </filter>
    </defs>
    <g id="Page-5" stroke="none" stroke-width="1" fill="none" fill-rule="evenodd">
        <g id="Avataaar/Default" transform="translate(-24.000000, -13.000000)">
            <g id="Body" transform="translate(24.242424, 25.714286)">
                <mask id="mask-2" fill="white">
                    <use xlink:href="#path-1"></use>
                </mask>
                <use fill="#D0C6AC" xlink:href="#path-1"></use>
                <g id="Skin/ðŸ‘¶ðŸ¾-02-Dark-Brown" mask="url(#mask-2)" fill="#AE5D29">
                    <g transform="translate(-24.242424, 0.000000)" id="Color">
                        <rect x="0" y="0" width="200" height="174"></rect>
                    </g>
                </g>
                <path d="M118.181818,64.7186147 L118.181818,70.4329004 C118.181818,93.8631625 99.1878379,112.857143 75.7575758,112.857143 C52.3273136,112.857143 33.3333333,93.8631625 33.3333333,70.4329004 L33.3333333,64.7186147 C33.3333333,88.1488768 52.3273136,107.142857 75.7575758,107.142857 C99.1878379,107.142857 118.181818,88.1488768 118.181818,64.7186147 Z" id="Neck-Shadow" fill-opacity="0.100000001" fill="#000000" mask="url(#mask-2)"></path>
            </g>
            <g id="Clothing/Blazer-+-Shirt" transform="translate(0.000000, 121.428571)">
                <g id="Shirt" transform="translate(24.242424, 20.827273)">
                    <mask id="mask-4" fill="white">
                        <use xlink:href="#path-3"></use>
                    </mask>
                    <use id="Clothes" fill="#E6E6E6" xlink:href="#path-3"></use>
                    <g id="Color/Palette/Black" mask="url(#mask-4)" fill="#262E33">
                        <g transform="translate(-24.242424, -20.827273)" id="ðŸ–Color">
                            <rect x="0" y="0" width="200" height="79"></rect>
                        </g>
                    </g>
                    <g id="Shadowy" opacity="0.599999964" mask="url(#mask-4)" fill="#000000" fill-opacity="0.16">
                        <g transform="translate(45.454545, -17.954545)" id="Hola-ðŸ‘‹ðŸ¼">
                            <ellipse cx="30.6818182" cy="19.999658" rx="30.0265945" ry="19.3290214"></ellipse>
                        </g>
                    </g>
                </g>
                <g id="Blazer" transform="translate(24.242424, 20.109091)">
                    <path d="M100.259672,1.15818284 C129.124348,4.56148637 151.515152,29.1113716 151.515152,58.8909091 L99.7260025,58.8909091 C102.302469,50.2152685 103.787879,40.0089967 103.787879,29.0863636 C103.787879,18.9415299 102.506488,9.41466604 100.259672,1.15818284 Z M52.5467248,58.8909091 L0,58.8909091 C-3.67977783e-15,28.8432428 22.7958225,4.1198262 52.0367171,1.0714095 C49.7752377,9.3478878 48.4848485,18.905971 48.4848485,29.0863636 C48.4848485,40.0089967 49.9702585,50.2152685 52.5467248,58.8909091 Z" id="Saco" fill="#3A4C5A"></path>
                    <path d="M112.878788,41.6545455 L119.609188,36.8692312 C121.017633,35.8678269 122.909926,35.8841716 124.300863,36.9097557 L128.787879,40.2181818 L112.878788,41.6545455 Z" id="Pocket-hanky" fill="#E6E6E6"></path>
                    <path d="M52.2727273,0 C49.2424242,13.8848485 50.5050505,33.5151515 56.0606061,58.8909091 L43.9393939,58.8909091 L33.3333333,33.0363636 L37.8787879,26.5727273 L33.3333333,22.2636364 L47.7272727,0.718181818 C49.263378,0.265180476 50.7785296,0.0257865363 52.2727273,0 Z" id="Wing" fill="#2F4351"></path>
                    <path d="M114.393939,0 C111.363636,13.8848485 112.626263,33.5151515 118.181818,58.8909091 L106.060606,58.8909091 L95.4545455,33.0363636 L100,26.5727273 L95.4545455,22.2636364 L109.848485,0.718181818 C111.38459,0.265180476 112.899742,0.0257865363 114.393939,0 Z" id="Wing" fill="#2F4351" transform="translate(106.818182, 29.445455) scale(-1, 1) translate(-106.818182, -29.445455) "></path>
                </g>
            </g>
            <g id="Face" transform="translate(57.575758, 58.571429)">
                <g id="Mouth/Smile" transform="translate(1.515152, 37.142857)">
                    <mask id="mask-6" fill="white">
                        <use xlink:href="#path-5"></use>
                    </mask>
                    <use id="Mouth" fill-opacity="0.699999988" fill="#000000" fill-rule="evenodd" xlink:href="#path-5"></use>
                    <rect id="Teeth" fill="#FFFFFF" fill-rule="evenodd" mask="url(#mask-6)" x="29.6111111" y="1.40909091" width="23.537037" height="11.2727273" rx="5"></rect>
                    <g id="Tongue" stroke-width="1" fill-rule="evenodd" mask="url(#mask-6)" fill="#FF4F6D">
                        <g transform="translate(28.851852, 16.909091)">
                            <ellipse cx="8.35185185" cy="7.75" rx="8.35185185" ry="7.75"></ellipse>
                            <ellipse cx="15.9444444" cy="7.75" rx="8.35185185" ry="7.75"></ellipse>
                        </g>
                    </g>
                </g>
                <g id="Nose/Default" transform="translate(21.212121, 28.571429)" fill="#000000" fill-opacity="0.16">
                    <path d="M12,5.66666667 C12,8.79628025 16.0294373,11.3333333 21,11.3333333 C25.9705627,11.3333333 30,8.79628025 30,5.66666667" id="Nose"></path>
                </g>
                <g id="Eyes/Happy-ðŸ˜" transform="translate(0.000000, 5.714286)" fill="#000000" fill-opacity="0.599999964">
                    <path d="M12.2644128,15.8151513 C13.6657809,13.1387215 16.8212135,11.2727273 20.489235,11.2727273 C24.1443081,11.2727273 27.2904049,13.1255705 28.6991509,15.7868375 C29.1176308,16.5773893 28.5221323,17.2243621 27.9214428,16.7449479 C26.0612325,15.2603019 23.4195615,14.3331236 20.489235,14.3331236 C17.6505582,14.3331236 15.0827631,15.2032115 13.2338467,16.6072927 C12.5578339,17.1206619 11.8545411,16.5979527 12.2644128,15.8151513 Z" id="Squint"></path>
                    <path d="M56.2822699,15.8151513 C57.683638,13.1387215 60.8390706,11.2727273 64.5070922,11.2727273 C68.1621653,11.2727273 71.308262,13.1255705 72.717008,15.7868375 C73.1354879,16.5773893 72.5399894,17.2243621 71.9393,16.7449479 C70.0790896,15.2603019 67.4374186,14.3331236 64.5070922,14.3331236 C61.6684153,14.3331236 59.1006202,15.2032115 57.2517038,16.6072927 C56.575691,17.1206619 55.8723982,16.5979527 56.2822699,15.8151513 Z" id="Squint"></path>
                </g>
                <g id="Eyebrow/Outline/Default" fill="#000000" fill-opacity="0.599999964">
                    <g id="I-Browse" transform="translate(9.107143, 4.250000)">
                        <path d="M2.75509693,7.90399186 C5.72623371,4.00198893 13.8716355,1.81392636 20.8880114,3.42208616 C21.7021126,3.60867889 22.5241398,3.14398009 22.7240606,2.38415233 C22.9239814,1.62432457 22.4260898,0.857099171 21.6119886,0.670506435 C13.4636686,-1.19709601 4.03150418,1.33662381 0.28061736,6.26267481 C-0.204993913,6.90042956 -0.0447285115,7.78485328 0.638580152,8.23809046 C1.32188882,8.69132765 2.26948565,8.54174661 2.75509693,7.90399186 Z" id="Eyebrow" fill-rule="nonzero"></path>
                        <path d="M46.7729541,7.90399186 C49.7440909,4.00198893 57.8894926,1.81392636 64.9058685,3.42208616 C65.7199697,3.60867889 66.5419969,3.14398009 66.7419177,2.38415233 C66.9418385,1.62432457 66.4439469,0.857099171 65.6298458,0.670506435 C57.4815257,-1.19709601 48.0493613,1.33662381 44.2984745,6.26267481 C43.8128632,6.90042956 43.9731286,7.78485328 44.6564373,8.23809046 C45.339746,8.69132765 46.2873428,8.54174661 46.7729541,7.90399186 Z" id="Eyebrow" fill-rule="nonzero" transform="translate(55.401902, 4.277765) scale(-1, 1) translate(-55.401902, -4.277765) "></path>
                    </g>
                </g>
            </g>
            <g id="Top">
                <mask id="mask-8" fill="white">
                    <use xlink:href="#path-7"></use>
                </mask>
                <g id="Mask"></g>
                <g id="Top/Short-Hair/Dreads-01" mask="url(#mask-8)">
                    <g transform="translate(-0.757576, 0.000000)">
                        <g id="Facial-Hair/-Blank" transform="translate(37.210526, 51.428571)"></g>
                        <g id="Hair" stroke-width="1" fill-rule="evenodd" transform="translate(0.759398, 0.000000)">
                            <mask id="mask-10" fill="white">
                                <use xlink:href="#path-9"></use>
                            </mask>
                            <use id="Dreads-With-Cut" fill="#2E3257" xlink:href="#path-9"></use>
                            <g id="Color/Hair/Black" mask="url(#mask-10)" fill="#2C1B18">
                                <rect id="Color" x="0" y="0" width="200" height="200"></rect>
                            </g>
                        </g>
                        <g id="Top/_Resources/Round" transform="translate(47.082707, 60.714286)">
                            <g id="Lennon-Glasses">
                                <use fill="black" fill-opacity="1" filter="url(#filter-12)" xlink:href="#path-11"></use>
                                <use fill="#252C2F" fill-rule="evenodd" xlink:href="#path-11"></use>
                            </g>
                        </g>
                    </g>
                </g>
            </g>
        </g>
    </g>
</svg>